<?xml version="1.0" encoding="utf-8"?>
<!DOCTYPE svg
  PUBLIC '-//W3C//DTD SVG 1.0//EN'
  'http://www.w3.org/TR/2001/REC-SVG-20010904/DTD/svg10.dtd'>
<svg fill-rule="evenodd" height="200" preserveAspectRatio="xMinYMin meet" version="1.0" viewBox="0 0 997 200" width="997.0" xmlns="http://www.w3.org/2000/svg" xmlns:xlink="http://www.w3.org/1999/xlink">
	<title>...</title>
	<desc>...</desc>
	<clipPath id="clip">
		<rect height="200" width="997.0" x="0" y="0"/>
	</clipPath>
	<g id="group" style="clip-path: url(#clip)" transform="scale(1,-1) translate(0,-200)">
		<g transform="">
			<polygon points="49.85 135.4375, 58.5157 135.4375, 58.5157 147.25, 82.1407 123.625, 58.5157 100, 58.5157 111.8125, 49.85 111.8125" style="stroke: rgb(0%,0%,100%); stroke-linecap: round; stroke-width: 1; fill: rgb(0%,0%,100%);"/>
			<polygon points="96.25214 135.4375, 96.25214 147.25, 118.9312 123.625, 96.25214 100, 96.25214 111.8125" style="stroke: rgb(100%,0%,0%); stroke-linecap: round; stroke-width: 1; fill: rgb(100%,0%,0%);"/>
			<polygon points="153.4538 135.4375, 181.4508 135.4375, 181.4508 147.25, 205.0758 123.625, 181.4508 100, 181.4508 111.8125, 153.4538 111.8125" style="stroke: rgb(0%,0%,100%); stroke-linecap: round; stroke-width: 1; fill: rgb(0%,0%,100%);"/>
			<polygon points="210.2956 135.4375, 227.6009 135.4375, 227.6009 147.25, 251.2259 123.625, 227.6009 100, 227.6009 111.8125, 210.2956 111.8125" style="stroke: rgb(0%,0%,100%); stroke-linecap: round; stroke-width: 1; fill: rgb(0%,0%,100%);"/>
			<polygon points="251.2979 135.4375, 251.2979 147.25, 266.9573 123.625, 251.2979 100, 251.2979 111.8125" style="stroke: rgb(0%,0%,100%); stroke-linecap: round; stroke-width: 1; fill: rgb(0%,0%,100%);"/>
			<polygon points="267.5333 135.4375, 321.4492 135.4375, 321.4492 147.25, 345.0742 123.625, 321.4492 100, 321.4492 111.8125, 267.5333 111.8125" style="stroke: rgb(0%,0%,100%); stroke-linecap: round; stroke-width: 1; fill: rgb(0%,0%,100%);"/>
			<polygon points="347.6301 135.4375, 365.2594 135.4375, 365.2594 147.25, 388.8844 123.625, 365.2594 100, 365.2594 111.8125, 347.6301 111.8125" style="stroke: rgb(0%,0%,100%); stroke-linecap: round; stroke-width: 1; fill: rgb(0%,0%,100%);"/>
			<polygon points="390.0364 135.4375, 402.5899 135.4375, 402.5899 147.25, 426.2149 123.625, 402.5899 100, 402.5899 111.8125, 390.0364 111.8125" style="stroke: rgb(0%,0%,100%); stroke-linecap: round; stroke-width: 1; fill: rgb(0%,0%,100%);"/>
			<polygon points="427.9068 135.4375, 448.6681 135.4375, 448.6681 147.25, 472.2931 123.625, 448.6681 100, 448.6681 111.8125, 427.9068 111.8125" style="stroke: rgb(0%,0%,100%); stroke-linecap: round; stroke-width: 1; fill: rgb(0%,0%,100%);"/>
			<polygon points="474.9569 135.4375, 493.0183 135.4375, 493.0183 147.25, 516.6433 123.625, 493.0183 100, 493.0183 111.8125, 474.9569 111.8125" style="stroke: rgb(0%,0%,100%); stroke-linecap: round; stroke-width: 1; fill: rgb(0%,0%,100%);"/>
			<polygon points="518.8032 135.4375, 545.5042 135.4375, 545.5042 147.25, 569.1292 123.625, 545.5042 100, 545.5042 111.8125, 518.8032 111.8125" style="stroke: rgb(0%,0%,100%); stroke-linecap: round; stroke-width: 1; fill: rgb(0%,0%,100%);"/>
			<polygon points="569.7051 135.4375, 581.8267 135.4375, 581.8267 147.25, 605.4517 123.625, 581.8267 100, 581.8267 111.8125, 569.7051 111.8125" style="stroke: rgb(0%,0%,100%); stroke-linecap: round; stroke-width: 1; fill: rgb(0%,0%,100%);"/>
			<polygon points="606.8557 135.4375, 619.6252 135.4375, 619.6252 147.25, 643.2502 123.625, 619.6252 100, 619.6252 111.8125, 606.8557 111.8125" style="stroke: rgb(0%,0%,100%); stroke-linecap: round; stroke-width: 1; fill: rgb(0%,0%,100%);"/>
			<polygon points="643.9342 135.4375, 656.8117 135.4375, 656.8117 147.25, 680.4367 123.625, 656.8117 100, 656.8117 111.8125, 643.9342 111.8125" style="stroke: rgb(0%,0%,100%); stroke-linecap: round; stroke-width: 1; fill: rgb(0%,0%,100%);"/>
			<polygon points="681.1567 135.4375, 709.1536 135.4375, 709.1536 147.25, 732.7786 123.625, 709.1536 100, 709.1536 111.8125, 681.1567 111.8125" style="stroke: rgb(0%,0%,100%); stroke-linecap: round; stroke-width: 1; fill: rgb(0%,0%,100%);"/>
			<polygon points="739.4023 135.4375, 766.4273 135.4375, 766.4273 147.25, 790.0523 123.625, 766.4273 100, 766.4273 111.8125, 739.4023 111.8125" style="stroke: rgb(0%,0%,100%); stroke-linecap: round; stroke-width: 1; fill: rgb(0%,0%,100%);"/>
			<polygon points="798.116 135.4375, 825.4649 135.4375, 825.4649 147.25, 849.0899 123.625, 825.4649 100, 825.4649 111.8125, 798.116 111.8125" style="stroke: rgb(0%,0%,100%); stroke-linecap: round; stroke-width: 1; fill: rgb(0%,0%,100%);"/>
			<polygon points="849.8819 135.4375, 875.6109 135.4375, 875.6109 147.25, 899.2359 123.625, 875.6109 100, 875.6109 111.8125, 849.8819 111.8125" style="stroke: rgb(0%,0%,100%); stroke-linecap: round; stroke-width: 1; fill: rgb(0%,0%,100%);"/>
			<polygon points="905.1037 135.4375, 923.489 135.4375, 923.489 147.25, 947.114 123.625, 923.489 100, 923.489 111.8125, 905.1037 111.8125" style="stroke: rgb(0%,0%,100%); stroke-linecap: round; stroke-width: 1; fill: rgb(0%,0%,100%);"/>
			<path d="M 947.114001,52.750000 L 947.114001,147.250000 Z" style="stroke: rgb(0%,0%,0%); stroke-linecap: butt; stroke-width: 1;"/>
			<path d="M 49.850000,100.000000 L 947.114001,100.000000 Z" style="stroke: rgb(0%,0%,0%); stroke-linecap: butt; stroke-width: 1;"/>
			<path d="M 49.850000,52.750000 L 49.850000,147.250000 Z" style="stroke: rgb(0%,0%,0%); stroke-linecap: butt; stroke-width: 1;"/>
			<path d="M 409.835557,100.000000 L 409.835557,114.175000 Z" style="stroke: rgb(0%,0%,0%); stroke-linecap: butt; stroke-width: 1;"/>
			<path d="M 769.821114,100.000000 L 769.821114,114.175000 Z" style="stroke: rgb(0%,0%,0%); stroke-linecap: butt; stroke-width: 1;"/>
			<g transform=" matrix(0.906308,0.422618,-0.422618,0.906308,65.995352,147.250000)">
				<text style="font-family: Helvetica; font-size: 12px; fill: rgb(0%,0%,0%);" transform="translate(0,0) scale(1,-1)" x="0" y="0">galF</text>
			</g>
			<g transform=" matrix(0.906308,0.422618,-0.422618,0.906308,107.591683,147.250000)">
				<text style="font-family: Helvetica; font-size: 12px; fill: rgb(0%,0%,0%);" transform="translate(0,0) scale(1,-1)" x="0" y="0">cpsACP</text>
			</g>
			<g transform=" matrix(0.906308,0.422618,-0.422618,0.906308,179.264808,147.250000)">
				<text style="font-family: Helvetica; font-size: 12px; fill: rgb(0%,0%,0%);" transform="translate(0,0) scale(1,-1)" x="0" y="0">wzi</text>
			</g>
			<g transform=" matrix(0.906308,0.422618,-0.422618,0.906308,230.760742,147.250000)">
				<text style="font-family: Helvetica; font-size: 12px; fill: rgb(0%,0%,0%);" transform="translate(0,0) scale(1,-1)" x="0" y="0">wza</text>
			</g>
			<g transform=" matrix(0.906308,0.422618,-0.422618,0.906308,259.127604,147.250000)">
				<text style="font-family: Helvetica; font-size: 12px; fill: rgb(0%,0%,0%);" transform="translate(0,0) scale(1,-1)" x="0" y="0">wzb</text>
			</g>
			<g transform=" matrix(0.906308,0.422618,-0.422618,0.906308,306.303711,147.250000)">
				<text style="font-family: Helvetica; font-size: 12px; fill: rgb(0%,0%,0%);" transform="translate(0,0) scale(1,-1)" x="0" y="0">wzc</text>
			</g>
			<g transform=" matrix(0.906308,0.422618,-0.422618,0.906308,368.257225,147.250000)">
				<text style="font-family: Helvetica; font-size: 12px; fill: rgb(0%,0%,0%);" transform="translate(0,0) scale(1,-1)" x="0" y="0">wcuD</text>
			</g>
			<g transform=" matrix(0.906308,0.422618,-0.422618,0.906308,408.125626,147.250000)">
				<text style="font-family: Helvetica; font-size: 12px; fill: rgb(0%,0%,0%);" transform="translate(0,0) scale(1,-1)" x="0" y="0">wcuC</text>
			</g>
			<g transform=" matrix(0.906308,0.422618,-0.422618,0.906308,450.099942,147.250000)">
				<text style="font-family: Helvetica; font-size: 12px; fill: rgb(0%,0%,0%);" transform="translate(0,0) scale(1,-1)" x="0" y="0">wcuV</text>
			</g>
			<g transform=" matrix(0.906308,0.422618,-0.422618,0.906308,495.800108,147.250000)">
				<text style="font-family: Helvetica; font-size: 12px; fill: rgb(0%,0%,0%);" transform="translate(0,0) scale(1,-1)" x="0" y="0">wbaZ</text>
			</g>
			<g transform=" matrix(0.906308,0.422618,-0.422618,0.906308,543.966176,147.250000)">
				<text style="font-family: Helvetica; font-size: 12px; fill: rgb(0%,0%,0%);" transform="translate(0,0) scale(1,-1)" x="0" y="0">wcaJ</text>
			</g>
			<g transform=" matrix(0.906308,0.422618,-0.422618,0.906308,587.578426,147.250000)">
				<text style="font-family: Helvetica; font-size: 12px; fill: rgb(0%,0%,0%);" transform="translate(0,0) scale(1,-1)" x="0" y="0">wcuE</text>
			</g>
			<g transform=" matrix(0.906308,0.422618,-0.422618,0.906308,625.052923,147.250000)">
				<text style="font-family: Helvetica; font-size: 12px; fill: rgb(0%,0%,0%);" transform="translate(0,0) scale(1,-1)" x="0" y="0">wcuG</text>
			</g>
			<g transform=" matrix(0.906308,0.422618,-0.422618,0.906308,662.185433,147.250000)">
				<text style="font-family: Helvetica; font-size: 12px; fill: rgb(0%,0%,0%);" transform="translate(0,0) scale(1,-1)" x="0" y="0">wzy</text>
			</g>
			<g transform=" matrix(0.906308,0.422618,-0.422618,0.906308,706.967636,147.250000)">
				<text style="font-family: Helvetica; font-size: 12px; fill: rgb(0%,0%,0%);" transform="translate(0,0) scale(1,-1)" x="0" y="0">wzx</text>
			</g>
			<g transform=" matrix(0.906308,0.422618,-0.422618,0.906308,764.727319,147.250000)">
				<text style="font-family: Helvetica; font-size: 12px; fill: rgb(0%,0%,0%);" transform="translate(0,0) scale(1,-1)" x="0" y="0">gnd</text>
			</g>
			<g transform=" matrix(0.906308,0.422618,-0.422618,0.906308,823.602957,147.250000)">
				<text style="font-family: Helvetica; font-size: 12px; fill: rgb(0%,0%,0%);" transform="translate(0,0) scale(1,-1)" x="0" y="0">manC</text>
			</g>
			<g transform=" matrix(0.906308,0.422618,-0.422618,0.906308,874.558912,147.250000)">
				<text style="font-family: Helvetica; font-size: 12px; fill: rgb(0%,0%,0%);" transform="translate(0,0) scale(1,-1)" x="0" y="0">manB</text>
			</g>
			<g transform=" matrix(0.906308,0.422618,-0.422618,0.906308,926.108844,147.250000)">
				<text style="font-family: Helvetica; font-size: 12px; fill: rgb(0%,0%,0%);" transform="translate(0,0) scale(1,-1)" x="0" y="0">ugd</text>
			</g>
		</g>
	</g>
</svg>
